<svg xmlns="http://www.w3.org/2000/svg" viewBox="0 0 600.79 591.13"><defs><style>.cls-1{fill:#fb9129;}.cls-2{fill:#42b3f0;}.cls-3{fill:#14539f;}.cls-4{fill:#46b1ee;}</style></defs><g id="Layer_2" data-name="Layer 2"><g id="Layer_1-2" data-name="Layer 1"><path class="cls-1" d="M278.71,114,16.85,232.87C9,236.42,0,231,0,222.68l.24-89.32a11.25,11.25,0,0,1,6.66-10.1L268.77,2.36c7.83-3.62,16.93,1.85,16.91,10.15l-.25,91.35A11.19,11.19,0,0,1,278.71,114Z"/><path class="cls-2" d="M406.85,211.52,13.59,406.66C7.39,409.74,0,405.43,0,398.76l.26-94.05a8.85,8.85,0,0,1,5.18-7.94L306.72,154.59a9.72,9.72,0,0,1,8.07-.08l91.72,41.1A8.7,8.7,0,0,1,406.85,211.52Z"/><path class="cls-3" d="M342.93,112.73,469.57,172.5a10,10,0,0,0,9.06-.28l84.25-46.47a9,9,0,0,0-.25-16L351.48,1.11c-6.4-3.3-14.17,1.15-14.16,8.09l.26,95.34A9.13,9.13,0,0,0,342.93,112.73Z"/><path class="cls-1" d="M585.09,178.15,226.68,357.91a10,10,0,0,0-.33,17.94l78.42,42.72a11.16,11.16,0,0,0,10.23.21l280-138a10.19,10.19,0,0,0,5.8-9.09V187.21C600.79,179.51,592.22,174.57,585.09,178.15Z"/><path class="cls-3" d="M156.79,392.78l123.27,69a10.25,10.25,0,0,1,5.35,8.92v110.1c0,8-9.08,13-16.29,8.91L36.18,459.34a10.12,10.12,0,0,1,.91-18.28l109.66-48.74A11.27,11.27,0,0,1,156.79,392.78Z"/><path class="cls-4" d="M595,471.91,351.22,587.24c-7,3.3-15.16-1.55-15.16-9V471a10,10,0,0,1,5.84-9L585.62,346.67c7-3.3,15.17,1.54,15.17,9V462.93A10,10,0,0,1,595,471.91Z"/></g></g></svg>