<svg id="Layer_1" data-name="Layer 1" xmlns="http://www.w3.org/2000/svg" viewBox="0 0 841.89 595.28"><defs><style>.cls-1{fill:#fb9129;}.cls-2{fill:#42b3f0;}.cls-3{fill:#14539f;}.cls-4{fill:#46b1ee;}.cls-5{font-size:149.91px;fill:#1a1a1a;font-family:Poppins-SemiBold, Poppins;font-weight:600;letter-spacing:-0.01em;}.cls-6{letter-spacing:0.03em;}.cls-7{letter-spacing:-0.01em;}</style></defs><path class="cls-1" d="M151,187.41,36.8,239.27a5.12,5.12,0,0,1-7.34-4.44l.1-39a4.92,4.92,0,0,1,2.91-4.41l114.22-52.74a5.13,5.13,0,0,1,7.38,4.43L154,183A4.88,4.88,0,0,1,151,187.41Z"/><path class="cls-2" d="M206.93,230,35.38,315.08a4.05,4.05,0,0,1-5.93-3.44l.12-41a3.84,3.84,0,0,1,2.25-3.46l131.43-62a4.24,4.24,0,0,1,3.52,0l40,17.93A3.8,3.8,0,0,1,206.93,230Z"/><path class="cls-3" d="M179,186.87l55.25,26.07a4.37,4.37,0,0,0,4-.12L275,192.55a3.92,3.92,0,0,0-.11-7l-92.1-47.38a4.19,4.19,0,0,0-6.18,3.53l.11,41.58A4,4,0,0,0,179,186.87Z"/><path class="cls-1" d="M284.68,215.41,128.34,293.82a4.37,4.37,0,0,0-.15,7.83l34.21,18.63a4.88,4.88,0,0,0,4.46.09L289,260.19a4.46,4.46,0,0,0,2.53-4V219.36A4.67,4.67,0,0,0,284.68,215.41Z"/><path class="cls-3" d="M97.85,309l53.77,30.09A4.47,4.47,0,0,1,154,343v48a4.73,4.73,0,0,1-7.11,3.89L45.24,338.06a4.41,4.41,0,0,1,.39-8l47.84-21.26A4.93,4.93,0,0,1,97.85,309Z"/><path class="cls-4" d="M289,343.55,182.66,393.86a4.58,4.58,0,0,1-6.61-3.92v-46.8a4.36,4.36,0,0,1,2.54-3.92l106.32-50.3a4.57,4.57,0,0,1,6.62,3.91v46.8A4.37,4.37,0,0,1,289,343.55Z"/><text class="cls-5" transform="translate(321.55 245.64) scale(1.11 1)">ZYON<tspan class="cls-6"><tspan x="0" y="142.6">TECH</tspan><tspan class="cls-7" x="409.26" y="142.6"> </tspan></tspan></text></svg>